<svg width="640" height="400" viewBox="0 0 640 400" fill="none" xmlns="http://www.w3.org/2000/svg">
  <rect width="640" height="400" rx="24" fill="#F6F8FB"/>
  <rect x="28" y="28" width="584" height="344" rx="24" fill="#FFFFFF" stroke="#E2E8F5"/>
  <text x="48" y="68" fill="#0F172A" font-family="Inter, Arial, sans-serif" font-size="24" font-weight="800">Result + feedback loop</text>
  <text x="48" y="96" fill="#5F6B85" font-family="Inter, Arial, sans-serif" font-size="15">Inspect the result, compare alternatives, then save the actual outcome.</text>

  <rect x="48" y="124" width="250" height="94" rx="18" fill="#0F172A"/>
  <text x="66" y="154" fill="#B9C6E3" font-family="Inter, Arial, sans-serif" font-size="14">Predicted choice</text>
  <text x="66" y="192" fill="#FFFFFF" font-family="Inter, Arial, sans-serif" font-size="24" font-weight="800">Warm noodle soup</text>

  <rect x="320" y="124" width="272" height="94" rx="18" fill="#F8FAFF" stroke="#E2E8F5"/>
  <text x="338" y="152" fill="#0F172A" font-family="Inter, Arial, sans-serif" font-size="18" font-weight="700">Decision audit</text>
  <rect x="338" y="170" width="70" height="28" rx="14" fill="#ECFDF5"/>
  <rect x="420" y="170" width="62" height="28" rx="14" fill="#EFF5FF"/>
  <text x="373" y="189" text-anchor="middle" fill="#0F766E" font-family="Inter, Arial, sans-serif" font-size="13" font-weight="700">high</text>
  <text x="451" y="189" text-anchor="middle" fill="#1D4ED8" font-family="Inter, Arial, sans-serif" font-size="13" font-weight="700">12pt</text>

  <rect x="48" y="238" width="262" height="98" rx="18" fill="#F8FAFF" stroke="#E2E8F5"/>
  <text x="66" y="266" fill="#0F172A" font-family="Inter, Arial, sans-serif" font-size="18" font-weight="700">Ranked options</text>
  <rect x="66" y="282" width="210" height="10" rx="5" fill="#E6EDFF"/>
  <rect x="66" y="302" width="186" height="10" rx="5" fill="#E6EDFF"/>
  <rect x="66" y="322" width="168" height="10" rx="5" fill="#E6EDFF"/>

  <rect x="332" y="238" width="260" height="98" rx="18" fill="#F8FAFF" stroke="#E2E8F5"/>
  <text x="350" y="266" fill="#0F172A" font-family="Inter, Arial, sans-serif" font-size="18" font-weight="700">Feedback</text>
  <rect x="350" y="282" width="146" height="10" rx="5" fill="#E6EDFF"/>
  <rect x="350" y="304" width="164" height="10" rx="5" fill="#E6EDFF"/>
  <rect x="350" y="326" width="182" height="34" rx="17" fill="#2563EB"/>
  <text x="441" y="348" text-anchor="middle" fill="#FFFFFF" font-family="Inter, Arial, sans-serif" font-size="15" font-weight="700">Feedback saved</text>
</svg>
